Passive_0002_3plates.mot
version=1
nRows=54
nColumns=19
inDegrees=yes
endheader
time	ground_force_vx	ground_force_vy	ground_force_vz	ground_force_px	ground_force_py	ground_force_pz	1_ground_force_vx	1_ground_force_vy	1_ground_force_vz	1_ground_force_px	1_ground_force_py	1_ground_force_pz	ground_torque_x	ground_torque_y	ground_torque_z	1_ground_torque_x	1_ground_torque_y	1_ground_torque_z
0.000000	0.000000	0.000000	0.000000	0.000000	0.000000	0.000000	0.000000	0.000000	0.000000	0.000000	0.000000	0.000000	0.000000	0.000000	0.000000	0.000000	0.000000	0.000000
0.000417	0.087971	0.236821	-0.049609	-0.395858	0.000000	0.295093	176.060758	823.099329	-18.031863	-1.192453	0.000000	0.286970	0.000000	0.016049	0.000000	0.000000	-2.214935	0.000000
0.000834	-0.086903	-0.640094	0.039933	-0.396441	0.000000	0.304078	176.674278	822.735494	-18.129847	-1.192394	0.000000	0.286961	0.000000	-0.014798	0.000000	0.000000	-2.197362	0.000000
0.001250	0.131893	0.498104	-0.048095	-0.405648	0.000000	0.298520	177.051012	822.734092	-17.873978	-1.192234	0.000000	0.286987	0.000000	-0.001346	0.000000	0.000000	-2.197237	0.000000
0.001667	-0.132389	0.146444	-0.157343	-0.409196	0.000000	0.288634	177.335182	822.204589	-17.904919	-1.192109	0.000000	0.286957	0.000000	0.011685	0.000000	0.000000	-2.126946	0.000000
0.002084	-0.811779	1.988679	-0.263952	-0.444518	0.000000	0.261170	178.083087	822.011050	-17.827178	-1.192136	0.000000	0.286982	0.000000	0.029542	0.000000	0.000000	-2.148962	0.000000
0.002501	-3.489900	7.243022	-2.343576	-0.504980	0.000000	0.234472	178.548633	822.535513	-17.594135	-1.191868	0.000000	0.287085	0.000000	0.071058	0.000000	0.000000	-2.152692	0.000000
0.002918	-7.161087	13.714587	-5.950996	-0.540486	0.000000	0.215900	179.162568	821.547689	-17.672162	-1.191944	0.000000	0.287142	0.000000	0.257662	0.000000	0.000000	-2.113276	0.000000
0.003334	-9.624180	18.701569	-8.455019	-0.550108	0.000000	0.205680	179.647234	821.904247	-17.483296	-1.191664	0.000000	0.287061	0.000000	0.465172	0.000000	0.000000	-2.099971	0.000000
0.003751	-9.347833	23.936002	-9.451660	-0.558147	0.000000	0.208017	179.844290	821.110407	-17.423948	-1.191672	0.000000	0.287007	0.000000	0.423419	0.000000	0.000000	-2.056433	0.000000
0.004168	-9.871397	27.450070	-9.232049	-0.554955	0.000000	0.204131	180.133780	820.924416	-17.231631	-1.191651	0.000000	0.287147	0.000000	0.437160	0.000000	0.000000	-2.078164	0.000000
0.004585	-12.760333	28.165459	-10.119283	-0.563061	0.000000	0.200627	180.855863	820.209286	-17.440759	-1.191533	0.000000	0.287117	0.000000	0.572727	0.000000	0.000000	-2.082743	0.000000
0.005002	-14.997661	29.044700	-11.896845	-0.568546	0.000000	0.199110	181.295331	820.379940	-17.404600	-1.191413	0.000000	0.287109	0.000000	0.578222	0.000000	0.000000	-2.056146	0.000000
0.005418	-14.674811	29.300463	-12.805812	-0.566312	0.000000	0.196154	181.759725	819.672788	-16.999270	-1.191377	0.000000	0.287050	0.000000	0.369686	0.000000	0.000000	-2.008255	0.000000
0.005835	-13.733383	28.943724	-12.304988	-0.567082	0.000000	0.197039	182.291404	820.013324	-16.833198	-1.191156	0.000000	0.287244	0.000000	0.303942	0.000000	0.000000	-2.016208	0.000000
0.006252	-13.965266	29.132419	-11.151421	-0.566895	0.000000	0.202792	182.708885	820.094969	-16.771464	-1.191177	0.000000	0.287187	0.000000	0.407801	0.000000	0.000000	-2.042769	0.000000
0.006669	-14.680463	28.275447	-10.346039	-0.564651	0.000000	0.201754	183.408777	818.939881	-16.851394	-1.191166	0.000000	0.287087	0.000000	0.463694	0.000000	0.000000	-1.990604	0.000000
0.007086	-14.071217	26.693898	-10.760056	-0.560956	0.000000	0.197769	183.979440	818.663046	-16.972430	-1.191006	0.000000	0.287187	0.000000	0.337283	0.000000	0.000000	-1.959383	0.000000
0.007503	-12.473952	24.667550	-10.745457	-0.555219	0.000000	0.206057	184.111353	818.837685	-16.952303	-1.190973	0.000000	0.287178	0.000000	0.363157	0.000000	0.000000	-1.954899	0.000000
0.007919	-11.316115	21.152527	-10.278178	-0.554757	0.000000	0.203444	184.575353	818.661830	-16.697983	-1.190786	0.000000	0.287154	0.000000	0.475506	0.000000	0.000000	-1.954971	0.000000
0.008336	-10.677146	18.875706	-9.304403	-0.554891	0.000000	0.207542	185.234541	818.209342	-16.666116	-1.190707	0.000000	0.287175	0.000000	0.574644	0.000000	0.000000	-1.932976	0.000000
0.008753	-9.143375	17.555890	-8.567204	-0.549959	0.000000	0.211741	185.610884	818.379463	-16.433887	-1.190578	0.000000	0.287238	0.000000	0.512975	0.000000	0.000000	-1.879814	0.000000
0.009170	-7.309073	15.962848	-8.600509	-0.540322	0.000000	0.214201	186.002222	818.372595	-16.749220	-1.190427	0.000000	0.287235	0.000000	0.569556	0.000000	0.000000	-1.817887	0.000000
0.009587	-6.518419	15.525074	-8.043485	-0.531791	0.000000	0.220727	186.447426	817.394223	-16.364661	-1.190380	0.000000	0.287376	0.000000	0.717442	0.000000	0.000000	-1.835600	0.000000
0.010003	-6.735427	13.426062	-7.742480	-0.531294	0.000000	0.222018	186.976738	817.042848	-16.130462	-1.190252	0.000000	0.287288	0.000000	0.808276	0.000000	0.000000	-1.888830	0.000000
0.010420	-6.016342	12.015229	-7.632367	-0.534277	0.000000	0.215438	187.329220	816.594602	-15.964000	-1.190270	0.000000	0.287292	0.000000	0.681486	0.000000	0.000000	-1.827383	0.000000
0.010837	-5.252802	12.794503	-8.047267	-0.530019	0.000000	0.221921	187.745795	817.023308	-16.037469	-1.190201	0.000000	0.287342	0.000000	0.655886	0.000000	0.000000	-1.769660	0.000000
0.011254	-5.101817	12.876184	-8.163324	-0.530162	0.000000	0.221538	188.207553	815.967071	-15.959488	-1.190039	0.000000	0.287299	0.000000	0.804242	0.000000	0.000000	-1.783344	0.000000
0.011671	-5.891275	14.278448	-8.558720	-0.534159	0.000000	0.219460	188.448591	815.879633	-15.896621	-1.190034	0.000000	0.287193	0.000000	0.966067	0.000000	0.000000	-1.788097	0.000000
0.012087	-6.548150	17.348689	-9.054483	-0.535391	0.000000	0.219228	188.799845	815.608885	-15.972172	-1.189847	0.000000	0.287284	0.000000	0.940903	0.000000	0.000000	-1.730488	0.000000
0.012504	-6.756497	18.905015	-10.278874	-0.544533	0.000000	0.209859	189.044371	815.600323	-15.782515	-1.189787	0.000000	0.287402	0.000000	1.051033	0.000000	0.000000	-1.668475	0.000000
0.012921	-7.555199	21.513988	-11.807163	-0.554861	0.000000	0.206160	189.616632	815.071301	-15.661651	-1.189563	0.000000	0.287368	0.000000	1.235648	0.000000	0.000000	-1.677459	0.000000
0.013338	-9.222478	25.107869	-12.979742	-0.558477	0.000000	0.203954	190.100432	814.796809	-15.580980	-1.189597	0.000000	0.287357	0.000000	1.333011	0.000000	0.000000	-1.682028	0.000000
0.013755	-10.867562	27.914290	-14.078328	-0.564234	0.000000	0.200142	190.407765	814.522314	-15.630188	-1.189617	0.000000	0.287412	0.000000	1.220834	0.000000	0.000000	-1.673144	0.000000
0.014171	-12.138390	31.683708	-14.417440	-0.570120	0.000000	0.197610	190.648603	814.259817	-15.660528	-1.189397	0.000000	0.287409	0.000000	1.178144	0.000000	0.000000	-1.607001	0.000000
0.014588	-13.911476	36.337700	-15.170474	-0.570021	0.000000	0.196758	191.132781	814.343576	-15.559947	-1.189234	0.000000	0.287404	0.000000	1.166473	0.000000	0.000000	-1.580425	0.000000
0.015005	-15.596554	38.800089	-15.482475	-0.575426	0.000000	0.193133	191.421477	813.286639	-15.237643	-1.189235	0.000000	0.287372	0.000000	1.010056	0.000000	0.000000	-1.598704	0.000000
0.015422	-17.339948	41.888234	-15.218253	-0.578770	0.000000	0.194652	191.705542	813.289025	-15.221214	-1.189135	0.000000	0.287253	0.000000	0.687703	0.000000	0.000000	-1.563718	0.000000
0.015839	-18.648557	44.623017	-15.114868	-0.578269	0.000000	0.193149	191.773906	812.755107	-15.139640	-1.189043	0.000000	0.287421	0.000000	0.452695	0.000000	0.000000	-1.519370	0.000000
0.016255	-20.199849	48.842546	-15.146868	-0.578651	0.000000	0.192033	192.233866	811.338154	-15.150235	-1.189076	0.000000	0.287381	0.000000	0.375038	0.000000	0.000000	-1.493658	0.000000
0.016672	-22.952716	53.771226	-15.475242	-0.581142	0.000000	0.192411	192.387547	812.217596	-15.173092	-1.188972	0.000000	0.287378	0.000000	0.249616	0.000000	0.000000	-1.484371	0.000000
0.017089	-24.525413	57.288720	-15.542947	-0.583675	0.000000	0.192128	192.741812	811.600193	-14.984431	-1.188789	0.000000	0.287430	0.000000	0.014808	0.000000	0.000000	-1.484405	0.000000
0.017506	-24.419056	61.312804	-15.910909	-0.581816	0.000000	0.192633	193.161736	810.276467	-14.689115	-1.188731	0.000000	0.287419	0.000000	-0.005787	0.000000	0.000000	-1.454220	0.000000
0.017923	-23.706973	63.913313	-16.382300	-0.583718	0.000000	0.191627	193.205376	810.449821	-14.712916	-1.188714	0.000000	0.287445	0.000000	0.287280	0.000000	0.000000	-1.418801	0.000000
0.018339	-23.432968	65.908656	-17.506270	-0.582498	0.000000	0.190008	193.401764	809.930409	-14.805041	-1.188458	0.000000	0.287375	0.000000	0.537086	0.000000	0.000000	-1.441033	0.000000
0.018756	-22.913481	68.255750	-18.316296	-0.582362	0.000000	0.193020	193.952203	810.102554	-14.681617	-1.188296	0.000000	0.287348	0.000000	0.651564	0.000000	0.000000	-1.449731	0.000000
0.019173	-20.168379	69.178025	-18.487172	-0.582353	0.000000	0.192124	194.308820	809.384381	-14.384645	-1.188277	0.000000	0.287550	0.000000	0.826569	0.000000	0.000000	-1.423097	0.000000
0.019590	-17.531338	68.349852	-18.294832	-0.583347	0.000000	0.190814	194.549803	808.673697	-14.413803	-1.188262	0.000000	0.287577	0.000000	1.157862	0.000000	0.000000	-1.379234	0.000000
0.020007	-15.389362	69.377684	-17.434409	-0.583968	0.000000	0.192294	194.769549	808.060055	-14.333664	-1.188118	0.000000	0.287539	0.000000	1.275415	0.000000	0.000000	-1.335474	0.000000
0.020424	-13.091681	69.800128	-16.246117	-0.582789	0.000000	0.192851	195.144495	807.876344	-14.251101	-1.188091	0.000000	0.287578	0.000000	1.314192	0.000000	0.000000	-1.361854	0.000000
0.020840	-10.314839	69.864865	-15.081297	-0.582171	0.000000	0.192778	195.189055	806.650801	-14.038475	-1.188042	0.000000	0.287491	0.000000	1.339863	0.000000	0.000000	-1.305423	0.000000
0.021257	-7.405925	69.928780	-13.613985	-0.581974	0.000000	0.192861	195.694167	806.561646	-14.093518	-1.187697	0.000000	0.287526	0.000000	1.422010	0.000000	0.000000	-1.274219	0.000000
0.021674	-5.498987	70.010093	-11.965346	-0.581168	0.000000	0.192308	195.761537	806.560710	-13.939710	-1.187767	0.000000	0.287497	0.000000	1.416756	0.000000	0.000000	-1.296431	0.000000
0.022091	-4.359296	70.792233	-10.678708	-0.582952	0.000000	0.191243	196.289404	805.400536	-13.907390	-1.187798	0.000000	0.287584	0.000000	1.315850	0.000000	0.000000	-1.274654	0.000000
